<mxfile host="app.diagrams.net" agent="Mozilla/5.0 (Windows NT 10.0; Win64; x64) AppleWebKit/537.36 (KHTML, like Gecko) Chrome/132.0.0.0 Safari/537.36 Edg/132.0.0.0" version="26.0.13">
  <diagram name="Page-1" id="9XXEA2IguulLAFdgVuje">
    <mxGraphModel dx="2066" dy="2284" grid="1" gridSize="10" guides="1" tooltips="1" connect="1" arrows="1" fold="1" page="1" pageScale="1" pageWidth="827" pageHeight="1169" math="0" shadow="0">
      <root>
        <mxCell id="0" />
        <mxCell id="1" parent="0" />
        <mxCell id="AYY9m108aF4hBV7hNJnA-1" value="玩家开始" style="rounded=1;whiteSpace=wrap;arcSize=50;strokeWidth=2;" vertex="1" parent="1">
          <mxGeometry x="313" width="57" height="39" as="geometry" />
        </mxCell>
        <mxCell id="AYY9m108aF4hBV7hNJnA-2" value="瞄准" style="whiteSpace=wrap;strokeWidth=2;" vertex="1" parent="1">
          <mxGeometry x="296" y="89" width="92" height="54" as="geometry" />
        </mxCell>
        <mxCell id="AYY9m108aF4hBV7hNJnA-67" style="edgeStyle=orthogonalEdgeStyle;rounded=0;orthogonalLoop=1;jettySize=auto;html=1;exitX=0.5;exitY=1;exitDx=0;exitDy=0;entryX=0.5;entryY=0;entryDx=0;entryDy=0;" edge="1" parent="1" source="AYY9m108aF4hBV7hNJnA-3" target="AYY9m108aF4hBV7hNJnA-4">
          <mxGeometry relative="1" as="geometry" />
        </mxCell>
        <mxCell id="AYY9m108aF4hBV7hNJnA-3" value="投掷动作" style="whiteSpace=wrap;strokeWidth=2;" vertex="1" parent="1">
          <mxGeometry x="278" y="170" width="124" height="54" as="geometry" />
        </mxCell>
        <mxCell id="AYY9m108aF4hBV7hNJnA-4" value="投掷物飞行" style="whiteSpace=wrap;strokeWidth=2;" vertex="1" parent="1">
          <mxGeometry x="270" y="250" width="140" height="54" as="geometry" />
        </mxCell>
        <mxCell id="AYY9m108aF4hBV7hNJnA-5" value="捕捉判定动画-失败" style="whiteSpace=wrap;strokeWidth=2;" vertex="1" parent="1">
          <mxGeometry x="370" y="940" width="194" height="54" as="geometry" />
        </mxCell>
        <mxCell id="AYY9m108aF4hBV7hNJnA-6" value="成功" style="rounded=1;whiteSpace=wrap;arcSize=50;strokeWidth=2;" vertex="1" parent="1">
          <mxGeometry x="218.5" y="1280" width="57" height="39" as="geometry" />
        </mxCell>
        <mxCell id="AYY9m108aF4hBV7hNJnA-65" style="edgeStyle=orthogonalEdgeStyle;rounded=0;orthogonalLoop=1;jettySize=auto;html=1;exitX=1;exitY=0.5;exitDx=0;exitDy=0;entryX=0.5;entryY=1;entryDx=0;entryDy=0;" edge="1" parent="1" source="AYY9m108aF4hBV7hNJnA-7" target="AYY9m108aF4hBV7hNJnA-45">
          <mxGeometry relative="1" as="geometry" />
        </mxCell>
        <mxCell id="AYY9m108aF4hBV7hNJnA-66" value="是" style="edgeLabel;html=1;align=center;verticalAlign=middle;resizable=0;points=[];" vertex="1" connectable="0" parent="AYY9m108aF4hBV7hNJnA-65">
          <mxGeometry x="-0.2291" y="-1" relative="1" as="geometry">
            <mxPoint as="offset" />
          </mxGeometry>
        </mxCell>
        <mxCell id="AYY9m108aF4hBV7hNJnA-7" value="是否剩余捕捉判定次数" style="rhombus;strokeWidth=2;whiteSpace=wrap;" vertex="1" parent="1">
          <mxGeometry x="414" y="1049.5" width="162" height="140" as="geometry" />
        </mxCell>
        <mxCell id="AYY9m108aF4hBV7hNJnA-58" style="edgeStyle=orthogonalEdgeStyle;rounded=0;orthogonalLoop=1;jettySize=auto;html=1;exitX=1;exitY=1;exitDx=0;exitDy=0;entryX=0.5;entryY=0;entryDx=0;entryDy=0;" edge="1" parent="1" source="AYY9m108aF4hBV7hNJnA-8" target="AYY9m108aF4hBV7hNJnA-5">
          <mxGeometry relative="1" as="geometry" />
        </mxCell>
        <mxCell id="AYY9m108aF4hBV7hNJnA-59" value="失败" style="edgeLabel;html=1;align=center;verticalAlign=middle;resizable=0;points=[];" vertex="1" connectable="0" parent="AYY9m108aF4hBV7hNJnA-58">
          <mxGeometry x="-0.1908" y="-1" relative="1" as="geometry">
            <mxPoint as="offset" />
          </mxGeometry>
        </mxCell>
        <mxCell id="AYY9m108aF4hBV7hNJnA-60" style="edgeStyle=orthogonalEdgeStyle;rounded=0;orthogonalLoop=1;jettySize=auto;html=1;exitX=0;exitY=1;exitDx=0;exitDy=0;entryX=0.5;entryY=0;entryDx=0;entryDy=0;" edge="1" parent="1" source="AYY9m108aF4hBV7hNJnA-8" target="AYY9m108aF4hBV7hNJnA-9">
          <mxGeometry relative="1" as="geometry" />
        </mxCell>
        <mxCell id="AYY9m108aF4hBV7hNJnA-61" value="成功" style="edgeLabel;html=1;align=center;verticalAlign=middle;resizable=0;points=[];" vertex="1" connectable="0" parent="AYY9m108aF4hBV7hNJnA-60">
          <mxGeometry x="-0.1982" y="-1" relative="1" as="geometry">
            <mxPoint as="offset" />
          </mxGeometry>
        </mxCell>
        <mxCell id="AYY9m108aF4hBV7hNJnA-8" value="是否成功?" style="rhombus;strokeWidth=2;whiteSpace=wrap;" vertex="1" parent="1">
          <mxGeometry x="280" y="770" width="124" height="124" as="geometry" />
        </mxCell>
        <mxCell id="AYY9m108aF4hBV7hNJnA-64" style="edgeStyle=orthogonalEdgeStyle;rounded=0;orthogonalLoop=1;jettySize=auto;html=1;entryX=0.5;entryY=0;entryDx=0;entryDy=0;" edge="1" parent="1" source="AYY9m108aF4hBV7hNJnA-9" target="AYY9m108aF4hBV7hNJnA-6">
          <mxGeometry relative="1" as="geometry" />
        </mxCell>
        <mxCell id="AYY9m108aF4hBV7hNJnA-9" value="捕捉判定动画-成功" style="whiteSpace=wrap;strokeWidth=2;" vertex="1" parent="1">
          <mxGeometry x="150" y="940" width="194" height="54" as="geometry" />
        </mxCell>
        <mxCell id="AYY9m108aF4hBV7hNJnA-51" style="edgeStyle=orthogonalEdgeStyle;rounded=0;orthogonalLoop=1;jettySize=auto;html=1;exitX=1;exitY=0.5;exitDx=0;exitDy=0;entryX=0.5;entryY=0;entryDx=0;entryDy=0;" edge="1" parent="1" source="AYY9m108aF4hBV7hNJnA-10" target="AYY9m108aF4hBV7hNJnA-14">
          <mxGeometry relative="1" as="geometry" />
        </mxCell>
        <mxCell id="AYY9m108aF4hBV7hNJnA-52" style="edgeStyle=orthogonalEdgeStyle;rounded=0;orthogonalLoop=1;jettySize=auto;html=1;exitX=0;exitY=0.5;exitDx=0;exitDy=0;entryX=0.5;entryY=0;entryDx=0;entryDy=0;" edge="1" parent="1" source="AYY9m108aF4hBV7hNJnA-10" target="AYY9m108aF4hBV7hNJnA-11">
          <mxGeometry relative="1" as="geometry" />
        </mxCell>
        <mxCell id="AYY9m108aF4hBV7hNJnA-53" style="edgeStyle=orthogonalEdgeStyle;rounded=0;orthogonalLoop=1;jettySize=auto;html=1;entryX=0.5;entryY=0;entryDx=0;entryDy=0;" edge="1" parent="1" source="AYY9m108aF4hBV7hNJnA-10" target="AYY9m108aF4hBV7hNJnA-13">
          <mxGeometry relative="1" as="geometry" />
        </mxCell>
        <mxCell id="AYY9m108aF4hBV7hNJnA-10" value="命中" style="whiteSpace=wrap;strokeWidth=2;" vertex="1" parent="1">
          <mxGeometry x="296" y="330" width="92" height="54" as="geometry" />
        </mxCell>
        <mxCell id="AYY9m108aF4hBV7hNJnA-11" value="累计捕捉数量" style="whiteSpace=wrap;strokeWidth=2;" vertex="1" parent="1">
          <mxGeometry x="34" y="384" width="156" height="54" as="geometry" />
        </mxCell>
        <mxCell id="AYY9m108aF4hBV7hNJnA-13" value="是否正在播放捕捉动画？" style="rhombus;strokeWidth=2;whiteSpace=wrap;" vertex="1" parent="1">
          <mxGeometry x="227" y="420" width="230" height="140" as="geometry" />
        </mxCell>
        <mxCell id="AYY9m108aF4hBV7hNJnA-14" value="开启连续捕捉技能&#xa;重置连续捕捉技能持续时间" style="whiteSpace=wrap;strokeWidth=2;" vertex="1" parent="1">
          <mxGeometry x="480" y="380" width="238" height="104" as="geometry" />
        </mxCell>
        <mxCell id="AYY9m108aF4hBV7hNJnA-54" style="edgeStyle=orthogonalEdgeStyle;rounded=0;orthogonalLoop=1;jettySize=auto;html=1;entryX=0.5;entryY=0;entryDx=0;entryDy=0;" edge="1" parent="1" source="AYY9m108aF4hBV7hNJnA-16" target="AYY9m108aF4hBV7hNJnA-8">
          <mxGeometry relative="1" as="geometry" />
        </mxCell>
        <mxCell id="AYY9m108aF4hBV7hNJnA-16" value="消耗单次捕捉并进行成功率判定" style="whiteSpace=wrap;strokeWidth=2;" vertex="1" parent="1">
          <mxGeometry x="212" y="620" width="260" height="78" as="geometry" />
        </mxCell>
        <mxCell id="AYY9m108aF4hBV7hNJnA-17" value="" style="curved=1;startArrow=none;endArrow=block;exitX=0.51;exitY=1;entryX=0.5;entryY=0;rounded=0;" edge="1" parent="1" source="AYY9m108aF4hBV7hNJnA-1" target="AYY9m108aF4hBV7hNJnA-2">
          <mxGeometry relative="1" as="geometry">
            <Array as="points" />
          </mxGeometry>
        </mxCell>
        <mxCell id="AYY9m108aF4hBV7hNJnA-18" value="" style="curved=1;startArrow=none;endArrow=block;exitX=0.5;exitY=1;entryX=0.5;entryY=0;rounded=0;" edge="1" parent="1" source="AYY9m108aF4hBV7hNJnA-2" target="AYY9m108aF4hBV7hNJnA-3">
          <mxGeometry relative="1" as="geometry">
            <Array as="points" />
          </mxGeometry>
        </mxCell>
        <mxCell id="AYY9m108aF4hBV7hNJnA-21" value="" style="curved=1;startArrow=none;endArrow=block;exitX=0.65;exitY=1;entryX=0.5;entryY=0;rounded=0;entryDx=0;entryDy=0;" edge="1" parent="1" source="AYY9m108aF4hBV7hNJnA-5" target="AYY9m108aF4hBV7hNJnA-7">
          <mxGeometry relative="1" as="geometry">
            <Array as="points" />
          </mxGeometry>
        </mxCell>
        <mxCell id="AYY9m108aF4hBV7hNJnA-25" value="" style="curved=1;startArrow=none;endArrow=block;exitX=0.5;exitY=1;entryX=0.5;entryY=0;rounded=0;" edge="1" parent="1" source="AYY9m108aF4hBV7hNJnA-4" target="AYY9m108aF4hBV7hNJnA-10">
          <mxGeometry relative="1" as="geometry">
            <Array as="points" />
          </mxGeometry>
        </mxCell>
        <mxCell id="AYY9m108aF4hBV7hNJnA-31" value="" style="curved=1;startArrow=none;endArrow=block;exitX=0.5;exitY=1;entryX=1;entryY=0.77;rounded=0;exitDx=0;exitDy=0;" edge="1" parent="1" source="AYY9m108aF4hBV7hNJnA-41" target="AYY9m108aF4hBV7hNJnA-3">
          <mxGeometry relative="1" as="geometry">
            <Array as="points">
              <mxPoint x="526" y="170" />
              <mxPoint x="476" y="190" />
            </Array>
            <mxPoint x="776" y="101.07999999999993" as="sourcePoint" />
          </mxGeometry>
        </mxCell>
        <mxCell id="AYY9m108aF4hBV7hNJnA-33" value="否" style="curved=1;startArrow=none;endArrow=block;exitX=0.5;exitY=1;entryX=0.5;entryY=0;rounded=0;" edge="1" parent="1" source="AYY9m108aF4hBV7hNJnA-13" target="AYY9m108aF4hBV7hNJnA-16">
          <mxGeometry relative="1" as="geometry">
            <Array as="points" />
          </mxGeometry>
        </mxCell>
        <mxCell id="AYY9m108aF4hBV7hNJnA-38" value="" style="curved=1;startArrow=none;endArrow=block;exitX=0.5;exitY=1;rounded=0;exitDx=0;exitDy=0;entryX=0.5;entryY=0;entryDx=0;entryDy=0;" edge="1" parent="1" source="AYY9m108aF4hBV7hNJnA-7" target="AYY9m108aF4hBV7hNJnA-68">
          <mxGeometry relative="1" as="geometry">
            <Array as="points" />
            <mxPoint x="263" y="1354" as="sourcePoint" />
            <mxPoint x="310" y="1340" as="targetPoint" />
          </mxGeometry>
        </mxCell>
        <mxCell id="AYY9m108aF4hBV7hNJnA-39" value="否" style="edgeLabel;html=1;align=center;verticalAlign=middle;resizable=0;points=[];" vertex="1" connectable="0" parent="AYY9m108aF4hBV7hNJnA-38">
          <mxGeometry x="0.0702" relative="1" as="geometry">
            <mxPoint as="offset" />
          </mxGeometry>
        </mxCell>
        <mxCell id="AYY9m108aF4hBV7hNJnA-41" value="玩家使用连续捕捉技能" style="rounded=1;whiteSpace=wrap;arcSize=50;strokeWidth=2;" vertex="1" parent="1">
          <mxGeometry x="457" width="160" height="39" as="geometry" />
        </mxCell>
        <mxCell id="AYY9m108aF4hBV7hNJnA-45" value="连续捕捉技能是否还持续" style="rhombus;strokeWidth=2;whiteSpace=wrap;" vertex="1" parent="1">
          <mxGeometry x="670" y="790" width="214" height="214" as="geometry" />
        </mxCell>
        <mxCell id="AYY9m108aF4hBV7hNJnA-63" style="edgeStyle=orthogonalEdgeStyle;rounded=0;orthogonalLoop=1;jettySize=auto;html=1;entryX=0.5;entryY=0;entryDx=0;entryDy=0;" edge="1" parent="1" source="AYY9m108aF4hBV7hNJnA-47" target="AYY9m108aF4hBV7hNJnA-49">
          <mxGeometry relative="1" as="geometry" />
        </mxCell>
        <mxCell id="AYY9m108aF4hBV7hNJnA-47" value="快速判定所有剩余捕捉次数" style="whiteSpace=wrap;strokeWidth=2;" vertex="1" parent="1">
          <mxGeometry x="540" y="640" width="194" height="50" as="geometry" />
        </mxCell>
        <mxCell id="AYY9m108aF4hBV7hNJnA-50" style="edgeStyle=orthogonalEdgeStyle;rounded=0;orthogonalLoop=1;jettySize=auto;html=1;entryX=0.5;entryY=0;entryDx=0;entryDy=0;" edge="1" parent="1" source="AYY9m108aF4hBV7hNJnA-49" target="AYY9m108aF4hBV7hNJnA-8">
          <mxGeometry relative="1" as="geometry" />
        </mxCell>
        <mxCell id="AYY9m108aF4hBV7hNJnA-49" value="播放快速判定动画" style="whiteSpace=wrap;strokeWidth=2;" vertex="1" parent="1">
          <mxGeometry x="540" y="720" width="194" height="50" as="geometry" />
        </mxCell>
        <mxCell id="AYY9m108aF4hBV7hNJnA-56" style="edgeStyle=orthogonalEdgeStyle;rounded=0;orthogonalLoop=1;jettySize=auto;html=1;entryX=0.5;entryY=0;entryDx=0;entryDy=0;" edge="1" parent="1" source="AYY9m108aF4hBV7hNJnA-45" target="AYY9m108aF4hBV7hNJnA-47">
          <mxGeometry relative="1" as="geometry">
            <mxPoint x="730.014" y="579" as="targetPoint" />
          </mxGeometry>
        </mxCell>
        <mxCell id="AYY9m108aF4hBV7hNJnA-68" value="失败" style="rounded=1;whiteSpace=wrap;arcSize=50;strokeWidth=2;" vertex="1" parent="1">
          <mxGeometry x="466.5" y="1280" width="57" height="39" as="geometry" />
        </mxCell>
      </root>
    </mxGraphModel>
  </diagram>
</mxfile>
